<svg xmlns="http://www.w3.org/2000/svg" width="1920" height="1260" viewBox="0 0 1920 1260">
  <defs>
    <style>
      .cls-1 {
        fill: #020000;
        fill-rule: evenodd;
      }
    </style>
  </defs>
  <path id="Color_Fill_1" data-name="Color Fill 1" class="cls-1" d="M0,0H1920V804c-23.75.185-46.12-5.479-65-9-28.31-5.278-62.19,2.992-88-2-1.33-1.667-2.67-3.333-4-5-3.64-7.694-2-23.1-2-34,0-41.357.78-53.116-17-76q-4.995-7.5-10-15c-25.43-17.6-74.12,32.235-116,13q-9.495-11.5-19-23c-2.94-9.579,4.18-28.169-4-32l-16-1c-8.27-2.814-18.28-9.621-28-12-33.83-8.282-76.12-5-116-5H1186c-35.13,0-116.93-7.536-139,6-15.21,9.331-12.02,36.423-12,61,0.03,38.889,11.67,66.634,19,100,2.67,12.14,11.48,30.182,5,41v2c-60.9.445-102.052-8.632-149-18H802c-39.637,0-74.965-2.82-111-9-22.43-3.847-47.676.312-67-3H577c-63.261,0-116.341,8.705-168,18-27.189,4.892-53.189,1.841-78,6H247c-84.682,0-160.386-5.951-241-6C-9.161,724.5,0,611.512,0,524V0ZM1668,696c50.18-.884,66,5.378,66,55q-1.005,19.5-2,39c-8.07,17.858-43.07,19.245-62,27-15.62,6.4-31.33,19.794-46,27-4.76,2.339-17,3.019-22,1l-6-5c-9.14-13.05,7.06-65.616,17-71l-9-4c8.3,0.277,18.68.545,24-2,0.19-24.247,15.89-55.781,32-65ZM3,801c3.023,1.259,1.2-.018,3,2H5Z"/>
</svg>
